<?xml version="1.0" encoding="UTF-8" standalone="no"?><svg xmlns="http://www.w3.org/2000/svg" xmlns:xlink="http://www.w3.org/1999/xlink" contentScriptType="text/ecmascript" zoomAndPan="magnify" contentStyleType="text/css" id="Text" version="1.1" xml:space="preserve" width="371" fill="#000000" preserveAspectRatio="xMidYMid meet" viewBox="315.7 35.8 371.0 928.8" height="928.8" x="0" y="0"><g id="change1_1"><path fill="#73543e" d="M679.84,308.34c-0.98-1.45-1.97-2.89-2.99-4.3c-15.99-21.62-36.94-33.78-64.31-33.22 c-13.79,0.27-27.45,2.33-41.01,4.82c-9.97,1.83-19.81,4.3-30.57,6.67c3.8-4.71,8.04-7.66,10.78-12 c17.09-27.04,26.14-56.75,27.89-88.5c1.52-27.45-1.14-54.84-3.28-82.19c-0.46-6.06-0.25-12.21-1.62-18.25 c-0.77-3.38-1.91-6.1-5.44-6.91c-3.78-0.87-6.29,1.1-8.2,4.22c-2.97,4.82-4.78,10.15-6.25,15.53 c-12.17,44.98-28.63,88.77-38.17,134.5c0,0,0,0,0,0c-1.24-0.73-0.86-2.02-1.06-3.1c0,0,0,0,0,0c0,0,0,0,0-0.01 c2.22-20.79,1.66-41.55-1.1-62.23c-4.19-31.11-11.98-61.32-24.27-90.27c-4.94-11.63-11.94-22.14-18.71-32.77 c-1.89-2.95-4.92-4.57-8.62-3.63c-3.28,0.83-5.11,3.24-5.02,6.54c0.41,14.85,0.98,29.71,1.52,44.56c0.21,5.77,0.31,11.53,0.75,17.28 c1.6,20.18,3.41,40.33,4.96,60.51c1.23,15.84,3.53,31.54,5.83,47.24c1.58,10.72,4.3,21.28,5.15,33.06 c-6.83-8.08-12.79-15.57-19.21-22.66c-9.9-10.9-21.41-20.1-32.75-29.44c-13.7-11.27-28.99-19.35-46.7-22.49 c-15.01-2.66-25.87,6.17-23.34,19.6c1.43,7.6,4.05,14.87,8.1,21.49c13.43,21.93,31.54,39.56,51.58,55.32 c5.63,4.42,11.44,8.6,18.31,13.75c-11.55-0.52-21.58-0.48-31.4,1.18c-28.3,4.76-53.39,17.26-77.02,32.95 c-4.42,2.93-7.72,7.1-7.81,12.98c-0.13,8.51,5.3,14.95,15.68,17.67c15.93,4.17,32.12,4.32,48.4,2.7c6.29-0.64,12.62-0.98,18.9-1.47 c-13.17,6.11-25.62,13.16-37.79,20.66c-12.5,7.73-25.17,15.22-33.39,28.1c-6.96,10.9-3.7,22.11,8.18,27.12 c10.53,4.44,21.76,5.48,32.91,4.82c16.22-0.95,31.35-6.5,46.04-13.27c15.35-7.1,27.7-18.15,39.77-29.63 c4.92-5.96,9.86-11.92,14.78-17.88c6.58-10.84,14.08-21.01,22.07-31.15c4.17,9.49,3.88,9.63-3.38,15.84 c-6.08,5.21-11.63,11.03-17.4,16.59c-4.76,6.08-9.32,12.35-14.87,17.77c-6.19,8.83-12.19,17.8-18.63,26.46 c-17.03,22.92-30.34,47.66-37.54,75.44c-3.36,12.87,5.13,21.45,18.09,18.52c8.41-1.91,15.59-6.25,21.68-12.11 c12.09-11.61,24.05-23.36,35.28-35.84c0.4,0.39,0.79,0.79,1.19,1.18c0,0,0.01-0.01,0.01-0.01c0,0,0,0,0,0 c-6.65,18.04-13.85,35.9-18.48,54.59c-4.75,19.21-8.02,38.64-7.91,58.49c0.1,14,10.2,19.98,22.86,13.79 c5.84-2.87,10.3-7.31,13.93-12.48c12.69-18,21.41-38.04,29.24-58.49c2.24-5.83,4.01-11.81,5.98-17.73 c2.28,11.01,3.36,21.74,4.75,32.43c2.51,19.54,5.05,39.08,7.89,58.58c3.03,20.72,5.84,41.49,6.6,62.4 c0.77,21.31,1.43,42.65,2.06,63.96c0.69,23.24,1.02,46.56-1.08,69.77c-0.6,6.62-0.6,13.25-1.31,19.85 c-1.64,15.28-3.88,30.48-4.75,45.81c-1.74,31.36,3.76,62.48,3.41,93.8c-0.08,5.25,1.43,10.72,4.86,15.26 c2.31,3.05,5.15,4.44,8.6,2.51c3.45-1.93,4.15-5.29,2.43-8.64c-3.14-6.15-3.74-12.69-3.53-19.37c0.39-11.57,0.04-23.19-1.37-34.59 c-2.99-24.3-2.3-48.51,0.64-72.66c2.85-23.61,4.71-47.26,5-71c0.23-18.73-0.21-37.44-0.83-56.15c-0.81-24.63-1.04-49.26-3.24-73.84 c-2.1-23.65-5.84-47.07-8.99-70.56c-3.28-24.38-6.42-48.76-8.82-73.22c-2.49-25.38-6.38-50.5-11.36-75.5 c-6.37-32-17.17-63-21.01-95.56c-0.27-2.28-1.85-5.61,0.73-6.58c2.8-1.06,5.07,1.5,6.38,4.22c0.44,0.95,0.95,1.87,1.41,2.82 c14.8,29.84,26.66,60.78,35.99,92.76c16.16,55.32,24.25,111.88,25.21,169.36c0.69,40.6,0.56,81.21-0.5,121.83 c-0.71,28.16-0.54,56.34,0.42,84.53c0.81,23.24,0.52,46.55,1.35,69.81c0.33,8.91,0.68,17.84,0.71,26.72 c0.08,25.52,2.08,51.1-1.35,76.56c-0.44,3.28,1,5.92,4.44,6.73c3.16,0.75,5.5-0.54,6.5-3.76c0.52-1.66,0.96-3.36,1.27-5.07 c1.93-11.25,1.43-22.66,1.79-33.97c0.56-17.82,0.71-35.69-0.46-53.53c-1-15.01-0.31-30.07-1-45.12c-0.96-21.14-0.56-42.34-1.06-63.5 c-0.46-19.58,0.12-39.2,0.39-58.77c0.68-50.77,1.56-101.56-0.83-152.31c-0.6-13.06-1.83-26.12-3.36-39.12 c-2.41-20.77-6.1-41.38-10.18-61.9c0,0,0-0.01-0.01-0.01c0.09-0.79,0.16-1.6,0.99-2.03c0,0,0,0,0,0l0,0 c8.85,18.65,17.77,37.29,27.8,55.34c9.78,17.57,18.86,35.53,30.36,52.1c2.8,4.01,6.31,7.37,11.71,6.25 c5.54-1.16,7.62-5.73,9.01-10.59c1.87-6.6,0.96-13.16-0.69-19.64c-6.48-25.33-16.32-49.44-26.72-73.32 c-3.24-7.45-6.87-14.72-10.76-23.05c4.84,2.1,8.53,3.97,12.4,5.32c10.67,3.72,18.83-2.89,17.61-13.39c-0.37-3.12-0.6-6.21-1.62-9.24 c-4.8-14.02-12.38-26.56-20.62-38.79c-9.68-14.39-20.93-27.39-35.3-39.66c13.12,2.43,24.84,3.86,36.57,5.07 c18.94,1.99,37.38,0.56,54.57-8.56C685.61,323.21,686.75,318.56,679.84,308.34z M376.61,211.1c-4.61-6.62-8.18-13.75-9.63-21.87 c-0.75-4.26,1.29-5.3,4.55-5.54c11.88,1.33,22.72,5.21,32.43,11.71c26.12,17.44,48.01,39.27,66.37,64.72 c2.24,3.11,4.22,6.42,6.64,9.39c4.44,5.46,3.86,12.15,4.9,18.42c0.6,3.53-1.79,2.51-3.59,1.83c-11.3-4.24-22.51-8.82-32.7-15.3 C418.86,257.47,394.86,237.36,376.61,211.1z M446.04,375c-13.44,14.08-28.26,25.96-46.85,32.62c-10.55,3.78-21.2,7.48-32.44,7.81 c-8.66,0.25-17.42-0.64-25.71-3.8c-4.36-1.68-5.02-4.48-2.53-8.22c4.71-7.12,11.01-12.63,18.09-17.24 c17.01-11.11,34.57-21.24,53.68-28.37c12.44-4.65,25.6-7.02,37.96-11.96c9.45-3.78,18.4-8.45,27.41-13.1 c0.37,0.39,0.73,0.77,1.1,1.14C466.13,347.31,457.96,362.51,446.04,375z M466.42,315.75c-25.96,8.76-51.91,17.73-79.49,20.04 c-15.84,1.33-31.73,2.62-47.47-0.87c-3.88-0.85-9.34-1.12-10.15-5.11c-0.81-3.95,4.42-5.79,7.6-7.64 c18.15-10.57,36.73-20.33,57.41-25.11c21.95-5.09,43.65-3.61,65.14,2.91c8.41,2.57,16.96,4.71,26.52,7.35 C479.15,311.43,472.75,313.61,466.42,315.75z M426.32,488.72c-3.01,2.62-6.65,4.36-10.71,5.32c-3.9,0.95-4.46-0.27-3.38-3.59 c2.97-9.14,5.86-18.31,9.8-27.12c7.7-17.19,18.07-32.7,29.11-47.86c12.23-16.82,23.49-34.39,38.66-48.88 c1.25-1.2,2.14-2.76,3.93-5.09c2.95,7.14,1.02,12.6-0.17,17.88c-4.98,22.05-10.63,43.98-23.3,63.08 C458.36,460.38,442.45,474.71,426.32,488.72z M509.3,493.11c-7.43,26.08-18.46,50.5-33.06,73.34c-2.31,3.63-5.42,6.37-8.99,8.66 c-3.38,2.16-5.05,1.43-5.15-2.82c-0.21-9.32,1.18-18.48,2.47-27.62c5.79-41.14,23.01-78.58,38.33-116.62 c0.17-0.44,0.62-0.77,1.76-2.14C511.75,448.63,515.77,470.47,509.3,493.11z M497.38,253.79c-0.83,3.94-1.47,7.89-2.3,11.81 c-0.25,1.2-0.91,2.64-2.26,2.58c-1.77-0.06-1.16-1.79-1.31-2.89c-3.8-25.85-7.87-51.68-11.23-77.58 c-2.08-16.07-3.05-32.29-4.51-48.44c-2.03-22.43-3.28-44.91-4.19-67.4c-0.06-1.56,0-3.14,0-6.1c6,8.76,9.07,17.51,12.17,26.12 c10.36,28.68,16.7,58.23,19.56,88.65C505.66,205.45,502.44,229.64,497.38,253.79z M518.79,263.11 c9.97-25.27,15.47-51.81,22.16-78.01c5-19.64,11.75-38.75,18.15-57.96c1.47-4.44,2.84-8.89,4.24-13.35c0.44,0,0.89,0.02,1.33,0.02 c0.69,5.77,0.96,11.69,1.18,17.44c0.54,14.14,1.68,28.26,1.31,42.44c-0.77,30.65-8.64,59.3-23.84,85.9 c-6.6,11.57-18.36,18.98-31.77,20.31C514.05,274.14,516.58,268.68,518.79,263.11z M627.14,499.59c4.15,11.32,7.85,22.76,10.11,34.62 c0.15,0.83,0.15,1.7,0.21,2.55c-0.5,0.21-1.02,0.41-1.52,0.6c-30.26-51.54-57.75-104.47-79.43-160.39 c5.98,3.82,10.09,9.14,14.12,14.47c1.5,1.97,2.89,3.76,4.94,5.25c5.56,3.99,8.53,10.07,11.94,15.76 C604.07,439.97,616.15,469.54,627.14,499.59z M621.97,402.74c2.2,4.34,3.65,9.05,5.4,13.62c0.56,1.45,1.5,3.16,0.04,4.36 c-1.23,1-2.64-0.25-3.88-0.83c-6.54-3.05-12.35-7.18-17.65-12.06c-17.51-16.07-33.24-33.91-49.9-50.83 c-5.03-5.09-10.57-9.66-15.66-14.7c-2.08-2.04-4.01-4.46-5.36-7.06c-4.13-7.95-1.76-11.52,7.66-11.71c5.34,0.41,10.28,2.7,14.8,5.69 C585.59,347.85,606.79,372.71,621.97,402.74z M666.74,318.6c-8.51,3.74-17.3,6.87-26.7,6.91c-33.74,0.12-66.14-6.94-97.6-18.77 c-5-1.87-10.24-3.22-15.72-6.56c8.68-4.78,17.4-5.88,25.87-7.75c20.79-4.57,41.74-8.93,63.06-8.76 c23.03,0.19,40.26,11.92,52.89,30.86C670.49,317.45,668.17,317.99,666.74,318.6z"/></g></svg>