<?xml version="1.0" encoding="UTF-8" standalone="no"?><svg xmlns="http://www.w3.org/2000/svg" xmlns:xlink="http://www.w3.org/1999/xlink" contentScriptType="text/ecmascript" zoomAndPan="magnify" contentStyleType="text/css" id="Text" version="1.1" xml:space="preserve" width="489.8" fill="#000000" preserveAspectRatio="xMidYMid meet" viewBox="255.0 40.2 489.8 919.1" height="919.1" x="0" y="0"><g id="change1_1"><path fill="#b09041" d="M740.41,372.88c-3.63-2.16-7.51-1.04-10.67,1.62c-1.52,1.29-2.71,2.98-3.98,4.58 c-8.21,10.17-15.79,20.91-24.69,30.41c-20.86,22.23-39.86,45.95-58.21,70.22c-18.35,24.27-37.05,48.24-55.48,72.43 c-12.68,16.66-25.16,33.44-37.74,50.18c-1.02-0.58-1.17-1.57-1.23-2.61c0-0.01,0-0.01,0.01-0.02c13.6-25.71,27.2-51.42,42.02-76.46 c20.76-35.14,41.45-70.32,60.77-106.25c25.74-47.92,45.01-98.29,56.77-151.46c9.42-42.69,15.07-85.89,18.25-129.48 c0.7-9.65,1.12-19.32,1.74-28.97c1.17-18.2,1.86-36.5-0.92-54.68c-0.77-4.87-3.26-9.18-8.28-10.67c-5.17-1.49-9.2,1.22-12.41,5.07 c-1.72,2.09-3.38,4.25-4.7,6.61c-13.63,24.39-27.65,48.61-40.63,73.35c-35.96,68.56-66.19,139.9-101.6,208.75 c-16.26,31.63-26.76,65.42-33.92,100.21c-11.76,57.04-23.7,114.03-34.71,171.23c-5.49,28.54-13.38,56.46-19.77,84.75 c-2.67-4.76-0.43-9.96-1.3-14.88c0,0,0,0,0,0c0.52-29.74,1.79-59.43,3.93-89.12c2.41-33.25,6.99-66.19,12.73-98.97 c10.15-57.79,22.28-115.2,29.89-173.44c3.85-29.49,6.51-59.06,7.56-88.72c0.99-28.84,1.19-57.76-1.34-86.58 c-0.99-11.41-1.32-22.93-3.98-34.14c-0.92-3.9-2.74-7.24-7.43-7.58c-4.65-0.37-8.55,0.75-10.74,5.3c-1.17,2.44-2.39,4.85-3.36,7.39 c-7.41,18.9-12.68,38.47-17.73,58.11C464.42,226.59,455,285.3,441.59,343.16c-6.66,28.7-11.16,57.89-13.43,87.25 c-1.64,21.31-2.56,42.67-0.75,64.15c1.74,20.86,4.7,41.55,6.91,62.34c2.31,21.48,5.32,42.89,6.76,64.4 c1.34,20.24,4.25,40.26,6.41,60.37c1.39,13.1,2.91,26.31,1.52,41.48c-2.19-9.97-3.9-18.08-5.77-26.16 c-9.08-39.61-21.98-78-35.81-116.17c-13.68-37.7-26.33-75.79-40.51-113.31c-21.36-56.52-39.59-114.06-57.17-171.85 c-5.22-17.23-10.22-34.61-18.65-50.7c-2.56-4.87-6.22-8.48-12.11-8.31c-5.84,0.17-8.36,4.72-10.74,9.15 c-0.85,1.57-1.24,3.38-1.77,5.1c-7.34,24.12-9.23,49.04-10.49,73.98c-0.99,19.12,1.17,38.19,3.63,57.22 c4.23,32.3,12.88,63.43,23.1,94.27c11.56,34.84,28.5,67.14,45.53,99.49c24.29,46.13,47.84,92.63,71.79,138.9 c3.31,6.42,7.31,12.46,10.74,18.8c8.26,15.17,21.61,26.76,28.92,42.89c2.49,5.47,3.23,9.08,1.74,14.15 c-1.34,4.53-2.36,9.15-3.46,13.75c-6.04,25.36-12.28,50.68-16.04,76.56c-3.28,22.53-1.09,45.45-6.02,67.83 c-0.99,4.5,1.47,9.08,7.06,9.85c5.22,0.75,8.01-2.36,9.15-7.04c1.34-5.45,2.31-10.97,2.61-16.61c0.8-15.74,0.8-31.6,2.93-47.17 c5-36.35,13.53-72.04,22.55-107.59c0.52-2.11,1.04-3.8,3.43-4.45c6.09-1.67,9.77-6.44,13.05-11.24c7.11-10.37,16.66-17.85,27.6-23.4 c38.14-19.37,71.46-45.28,102.42-74.55c34.14-32.28,60.3-70.4,82.53-111.5c19.82-36.63,30.88-76.31,40.68-116.42 c4.48-18.38,9.08-36.73,13.73-55.05C744.81,379.22,744.36,375.21,740.41,372.88z M418.42,713.56 c-19.74-37.8-39.31-75.67-58.91-113.54c-13.9-26.83-28.37-53.39-41.4-80.66c-19.92-41.68-33.12-85.56-40.8-131.14 c-3.13-18.7-5.25-37.55-4.87-56.4c0.45-22.9,2.31-45.8,8.26-70.12c7.91,20.79,13.75,40.18,19.59,59.55 c16.26,53.93,34.24,107.3,54.03,160.04c13.05,34.81,24.49,70.22,37.35,105.11c15.59,42.32,29.19,85.19,39.29,129.18 c1.72,7.41,3.11,14.89,4.15,22.63C428.26,730.82,423.02,722.34,418.42,713.56z M458.85,568.65c-0.32,4.03-0.89,8.03-1.34,12.06 c-2.81,2.61,0.32,6.81-2.54,9.42c-0.02-1.29-0.07-2.61-0.12-3.93c-0.27-3.21,1.17-6.61-1.19-9.57c-3.11-24.52-6.52-49.01-9.23-73.58 c-2.66-24.27-1.79-48.56,0.65-72.83c7.71-77.01,28.45-151.51,43.37-227.12c4-20.34,9.5-40.31,15.27-60.2 c0.3-1.04,0.32-2.21,2.06-2.83c0.65,7.91,1.69,15.59,1.77,23.27c0.25,21.24,0.92,42.5-0.1,63.66 c-1.69,35.04-4.82,69.97-10.17,104.71c-8.23,53.81-18.92,107.15-28.4,160.73C464.42,517.67,460.79,543.03,458.85,568.65z M511.91,586.23c8.88-40.18,16.44-80.64,24.24-121.02c9.35-48.44,23.22-95.19,46.45-139.15c31.83-60.23,57.54-123.48,89.07-183.88 c12.21-23.4,25.26-46.33,37.95-69.45c0.42-0.77,0.77-1.64,2.09-1.57c1.22,1.94,0.55,4.2,0.55,6.32c-0.03,28.4-2.51,56.64-5.07,84.92 c-3.85,42.45-10.92,84.27-21.93,125.42c-12.83,47.99-32.82,92.95-56.79,136.34c-26.68,48.36-56.25,95.09-82.03,143.97 c-13.23,25.11-27.65,49.63-40.18,75.17c-1.57,3.21-5.12,5.2-5.37,9.15c-1.54-0.99-1.12-2.64-1.32-4.08 C503.66,627.63,507.34,606.84,511.91,586.23z M639.45,604.2c-41.7,56.89-108.49,107.42-148.3,124.18 c20.71-35.73,39.29-71.41,63.11-103.47C668.34,471.3,704.2,426.51,717.31,417.76C704.42,485.37,680.48,548.21,639.45,604.2z"/></g></svg>