<svg xmlns="http://www.w3.org/2000/svg" xmlns:xlink="http://www.w3.org/1999/xlink" width="50" zoomAndPan="magnify" viewBox="0 0 37.5 37.499999" height="50" preserveAspectRatio="xMidYMid meet" version="1.0"><defs><clipPath id="66dc07d1bb"><path d="M 0 0 L 37.007812 0 L 37.007812 37.007812 L 0 37.007812 Z M 0 0 " clip-rule="nonzero"/></clipPath><clipPath id="71720669e0"><path d="M 0 13 L 37.007812 13 L 37.007812 22 L 0 22 Z M 0 13 " clip-rule="nonzero"/></clipPath><clipPath id="b5ee5f27ca"><path d="M 21.382812 12.664062 L 32.921875 12.664062 L 32.921875 24.203125 L 21.382812 24.203125 Z M 21.382812 12.664062 " clip-rule="nonzero"/></clipPath><clipPath id="20040b627c"><path d="M 27.152344 12.664062 C 23.964844 12.664062 21.382812 15.246094 21.382812 18.433594 C 21.382812 21.621094 23.964844 24.203125 27.152344 24.203125 C 30.339844 24.203125 32.921875 21.621094 32.921875 18.433594 C 32.921875 15.246094 30.339844 12.664062 27.152344 12.664062 Z M 27.152344 12.664062 " clip-rule="nonzero"/></clipPath><clipPath id="32d61a74d5"><path d="M 21.382812 12.664062 L 32.917969 12.664062 L 32.917969 24.199219 L 21.382812 24.199219 Z M 21.382812 12.664062 " clip-rule="nonzero"/></clipPath><clipPath id="390504e19f"><path d="M 27.152344 12.664062 C 23.964844 12.664062 21.382812 15.246094 21.382812 18.429688 C 21.382812 21.617188 23.964844 24.199219 27.152344 24.199219 C 30.335938 24.199219 32.917969 21.617188 32.917969 18.429688 C 32.917969 15.246094 30.335938 12.664062 27.152344 12.664062 Z M 27.152344 12.664062 " clip-rule="nonzero"/></clipPath><clipPath id="0f416d6285"><path d="M 12.851562 13.113281 L 24.078125 13.113281 L 24.078125 24.34375 L 12.851562 24.34375 Z M 12.851562 13.113281 " clip-rule="nonzero"/></clipPath><clipPath id="5ec040d581"><path d="M 18.464844 13.113281 C 15.363281 13.113281 12.851562 15.628906 12.851562 18.730469 C 12.851562 21.828125 15.363281 24.34375 18.464844 24.34375 C 21.5625 24.34375 24.078125 21.828125 24.078125 18.730469 C 24.078125 15.628906 21.5625 13.113281 18.464844 13.113281 Z M 18.464844 13.113281 " clip-rule="nonzero"/></clipPath><clipPath id="0c0959fd5d"><path d="M 4.203125 12.664062 L 15.742188 12.664062 L 15.742188 24.203125 L 4.203125 24.203125 Z M 4.203125 12.664062 " clip-rule="nonzero"/></clipPath><clipPath id="368d468068"><path d="M 9.972656 12.664062 C 6.785156 12.664062 4.203125 15.246094 4.203125 18.433594 C 4.203125 21.621094 6.785156 24.203125 9.972656 24.203125 C 13.160156 24.203125 15.742188 21.621094 15.742188 18.433594 C 15.742188 15.246094 13.160156 12.664062 9.972656 12.664062 Z M 9.972656 12.664062 " clip-rule="nonzero"/></clipPath><clipPath id="20e48fc779"><path d="M 4.203125 12.664062 L 15.738281 12.664062 L 15.738281 24.199219 L 4.203125 24.199219 Z M 4.203125 12.664062 " clip-rule="nonzero"/></clipPath><clipPath id="b4c413ccbe"><path d="M 9.96875 12.664062 C 6.785156 12.664062 4.203125 15.246094 4.203125 18.429688 C 4.203125 21.617188 6.785156 24.199219 9.96875 24.199219 C 13.15625 24.199219 15.738281 21.617188 15.738281 18.429688 C 15.738281 15.246094 13.15625 12.664062 9.96875 12.664062 Z M 9.96875 12.664062 " clip-rule="nonzero"/></clipPath></defs><g clip-path="url(#66dc07d1bb)"><path fill="#ffffff" d="M 0 0 L 37.007812 0 L 37.007812 37.007812 L 0 37.007812 Z M 0 0 " fill-opacity="1" fill-rule="nonzero"/><path fill="#e7e4d8" d="M 0 0 L 37.007812 0 L 37.007812 37.007812 L 0 37.007812 Z M 0 0 " fill-opacity="1" fill-rule="nonzero"/></g><g clip-path="url(#71720669e0)"><path stroke-linecap="butt" transform="matrix(0.282427, -0.00700704, 0.00700704, 0.282427, -0.0000000448659, 17.77632)" fill="none" stroke-linejoin="miter" d="M 0.00286384 0.999526 L 130.982423 0.998853 " stroke="#000000" stroke-width="2" stroke-opacity="1" stroke-miterlimit="4"/></g><g clip-path="url(#b5ee5f27ca)"><g clip-path="url(#20040b627c)"><path fill="#822538" d="M 21.382812 12.664062 L 32.921875 12.664062 L 32.921875 24.203125 L 21.382812 24.203125 Z M 21.382812 12.664062 " fill-opacity="1" fill-rule="nonzero"/></g></g><g clip-path="url(#32d61a74d5)"><g clip-path="url(#390504e19f)"><path stroke-linecap="butt" transform="matrix(0.282514, 0, 0, 0.282514, 21.38317, 12.664327)" fill="none" stroke-linejoin="miter" d="M 20.420833 -0.00093662 C 9.138211 -0.00093662 -0.00126575 9.13854 -0.00126575 20.407335 C -0.00126575 31.689957 9.138211 40.829434 20.420833 40.829434 C 31.689628 40.829434 40.829105 31.689957 40.829105 20.407335 C 40.829105 9.13854 31.689628 -0.00093662 20.420833 -0.00093662 Z M 20.420833 -0.00093662 " stroke="#000000" stroke-width="2.619804" stroke-opacity="1" stroke-miterlimit="4"/></g></g><g clip-path="url(#0f416d6285)"><g clip-path="url(#5ec040d581)"><path fill="#b4707e" d="M 12.851562 13.113281 L 24.078125 13.113281 L 24.078125 24.34375 L 12.851562 24.34375 Z M 12.851562 13.113281 " fill-opacity="1" fill-rule="nonzero"/></g></g><g clip-path="url(#0c0959fd5d)"><g clip-path="url(#368d468068)"><path fill="#822538" d="M 4.203125 12.664062 L 15.742188 12.664062 L 15.742188 24.203125 L 4.203125 24.203125 Z M 4.203125 12.664062 " fill-opacity="1" fill-rule="nonzero"/></g></g><g clip-path="url(#20e48fc779)"><g clip-path="url(#b4c413ccbe)"><path stroke-linecap="butt" transform="matrix(0.282514, 0, 0, 0.282514, 4.203283, 12.664327)" fill="none" stroke-linejoin="miter" d="M 20.407713 -0.00093662 C 9.138918 -0.00093662 -0.000559272 9.13854 -0.000559272 20.407335 C -0.000559272 31.689957 9.138918 40.829434 20.407713 40.829434 C 31.690335 40.829434 40.829811 31.689957 40.829811 20.407335 C 40.829811 9.13854 31.690335 -0.00093662 20.407713 -0.00093662 Z M 20.407713 -0.00093662 " stroke="#000000" stroke-width="2.619804" stroke-opacity="1" stroke-miterlimit="4"/></g></g></svg>