<svg width="41" height="40" viewBox="0 0 41 40" fill="none" xmlns="http://www.w3.org/2000/svg">
<path d="M40.4424 34.5826L32.458 26.7943C32.0977 26.4427 31.6091 26.2474 31.0966 26.2474H29.7912C32.0016 23.4899 33.3149 20.0215 33.3149 16.2484C33.3149 7.27273 25.8591 0 16.6575 0C7.45582 0 0 7.27273 0 16.2484C0 25.2241 7.45582 32.4968 16.6575 32.4968C20.5255 32.4968 24.0813 31.2157 26.9082 29.0597V30.333C26.9082 30.8329 27.1084 31.3094 27.4688 31.661L35.4532 39.4493C36.206 40.1836 37.4232 40.1836 38.168 39.4493L40.4344 37.2386C41.1872 36.5042 41.1872 35.3169 40.4424 34.5826ZM16.6575 26.2474C10.9955 26.2474 6.40672 21.7791 6.40672 16.2484C6.40672 10.7255 10.9875 6.24939 16.6575 6.24939C22.3194 6.24939 26.9082 10.7177 26.9082 16.2484C26.9082 21.7713 22.3274 26.2474 16.6575 26.2474Z" fill="black"/>
</svg>
